<svg width="2330" height="2327" viewBox="0 0 2330 2327" fill="none" xmlns="http://www.w3.org/2000/svg">
<path fill-rule="evenodd" clip-rule="evenodd" d="M420 1181.53C420 1131.39 420.418 1033.55 421 921.5L600.091 818.866C599.199 1037.09 599.155 1035.26 596.267 1051.67C593.733 1065.93 593.333 1073.27 593.333 1102.33C593.333 1136.87 595.333 1160.6 600.133 1183C606.533 1212.2 616.267 1248.6 623.333 1269.67C628.933 1286.07 636.267 1313.53 646.667 1357C654.933 1391.8 661.6 1420.47 661.467 1420.73C661.2 1420.87 606.8 1389.27 540.533 1350.47L420 1279.93V1181.53ZM1577.33 442.334C1525.6 412.015 1470.67 382.688 1418.5 352.113L1596.5 249C1659.6 285.856 1720.18 318.738 1759.47 341.667L1910.27 429.667L1909.47 500.334C1909.07 539.134 1908.27 648.333 1907.87 742.734C1907.2 881.8 1906.67 914.2 1905.33 912.733C1904.4 911.8 1900.27 898.6 1896.27 883.534L1889.07 856.067L1842.8 803.134C1817.33 774.067 1796 750.334 1795.33 750.334C1794.67 750.334 1782.8 753 1769.07 756.467C1755.33 759.8 1740.67 763.267 1736.67 764.2L1729.33 765.934V648.734V531.4L1577.33 442.334Z" fill="black"/>
<path d="M425.333 423.467L796.667 211.867C1000.93 95.3334 1168.4 0 1168.8 0C1169.2 -0.133301 1268.27 57.6 1389.07 128.133C1452.64 165.322 1526.41 208.059 1596.5 249L1418.5 352.113C1288.72 276.059 1175.99 210.016 1172 207.733L1168 205.333L885.333 366.4L602.667 527.467L601.867 553.333C601.333 567.6 600.667 682.4 600.133 808.533L600.091 818.866L421 921.5C422.099 709.965 423.79 459.602 424.4 444L425.333 423.467Z" fill="#EB5A2F"/>
<path fill-rule="evenodd" clip-rule="evenodd" d="M1048.27 402.333C1049.07 399.933 1058.13 393.533 1082.67 378.067C1101.07 366.6 1116.67 357.267 1117.6 357.4C1118.53 357.533 1126.67 363.8 1135.73 371.4L1152.27 385.133L1151.73 396.733L1151.07 408.333L1186.4 444.467L1221.73 480.467L1244.67 483.4C1257.33 484.867 1268.27 486.733 1269.07 487.4C1270 488.067 1312.4 523 1363.33 565L1456 641.267L1489.33 680.333L1522.67 719.4L1577.33 826.733C1607.47 885.8 1632.13 933.267 1632.4 932.467C1632.53 931.533 1630 909 1626.67 882.467C1623.33 855.8 1620.8 833.8 1621.07 833.533C1621.18 833.31 1646.03 827.275 1679.29 819.201C1685.7 817.645 1692.42 816.014 1699.33 814.333C1742.27 804.067 1778.4 795.267 1779.6 794.867C1781.2 794.333 1790.53 804.2 1814.8 831.933C1824.99 843.625 1834.51 854.473 1841.13 862.017C1846.29 867.895 1849.68 871.766 1850.27 872.467C1851.73 874.067 1855.73 886.6 1860.13 903.133C1864.27 918.467 1868.4 932.2 1869.33 933.667C1870.27 935.133 1883.73 947.133 1899.2 960.333L1927.33 984.333L1944 1034.33C1953.07 1061.8 1960.27 1084.47 1960 1084.73C1959.73 1085 1955.73 1082.87 1951.2 1079.8C1946.53 1076.87 1942.53 1074.73 1942.27 1075C1941.47 1075.67 1990 1186.5 1986.13 1187.67C1986.13 1187.67 1980.8 1189.67 1960 1192.33C1939.2 1195 1812 1192.33 1812 1192.33L1801.73 1177.67C1801.47 1177.4 1790.8 1176.2 1778 1175C1757.2 1173.27 1696.27 1172.47 1682 1173.93C1642.53 1177.8 1622.67 1181.67 1590 1192.33C1564 1200.73 1527.33 1210.47 1514.67 1212.47C1511.07 1213 1508.67 1213.67 1509.47 1213.93C1504 1236 1378 1246.5 1372.8 1223.67C1372.8 1223 1372 1222 1369.87 1208.47C1360.67 1181.13 1355.47 1147.93 1357.33 1129.27L1358.27 1120.2L1389.73 1112.47C1407.07 1108.2 1421.73 1104.33 1422.27 1103.8C1422.8 1103.4 1423.87 1093.4 1424.67 1081.67L1426.27 1060.33L1440.93 1031.67C1449.07 1015.93 1456.27 1002.6 1456.93 1002.2C1457.47 1001.8 1469.2 999.533 1483.07 997.133C1496.8 994.733 1508.53 992.2 1509.07 991.667C1509.73 991.133 1497.33 965.667 1481.47 935.267L1452.67 879.933V871.133C1452.67 862.867 1451.73 860.333 1432.13 815.533C1420.8 789.8 1411.33 768.6 1411.07 768.467C1410.94 768.403 1398.27 761.622 1377.75 750.641C1355.48 738.725 1323.96 721.862 1289.2 703.267C1222.4 667.533 1167.47 638.333 1167.2 638.333C1166.93 638.333 1158.67 698.733 1148.8 772.733L1130.8 907L1155.47 947.667C1169.07 970.067 1184 995.667 1188.67 1004.47L1197.2 1020.73L1191.33 1030.47C1187.73 1036.6 1180.8 1045 1173.2 1052.73C1131.87 1094.07 1105.33 1149.27 1095.07 1215.67C1092.53 1232.47 1092.8 1296.33 1095.6 1313.4L1097.73 1326.47L1091.33 1340.73L1084.8 1355L1093.07 1377.93C1097.6 1390.47 1101.73 1401.27 1102.27 1401.67L1076.67 1424.87L1070.13 1414.6L1070.12 1414.58C1066.65 1408.98 1061.46 1400.59 1058.53 1395.93C1052.53 1386.47 1052.4 1386.47 1036.67 1390.33C1031.2 1391.67 1022.13 1393.53 1016.67 1394.33C1014.95 1394.63 1013.27 1394.91 1011.73 1395.16C1008.37 1395.72 1005.75 1396.15 1005.2 1396.33C1004.13 1396.6 1005.33 1403.13 1008.93 1415.93C1009.87 1419.38 1010.7 1422.46 1011.44 1425.22C1015.48 1440.23 1016.99 1445.83 1019.23 1448.73H985.733L974.267 1424.87L962.8 1401H947.733C939.467 1401 932.667 1401.4 932.533 1401.93C932.267 1403.4 932.4 1406.73 933.467 1430.73L934.267 1451.8L901.467 1455C901.867 1454.2 898.267 1442.73 893.6 1429.53L884.933 1405.67L871.467 1405.27C864.133 1405.13 858 1405.27 858 1405.53C858 1405.93 860.133 1418.33 862.667 1433C865.2 1447.67 867.333 1460.33 867.333 1460.87L834.8 1446.07C835.067 1445.67 822.933 1414.6 818.8 1405.4C818.667 1405.27 811.6 1404.73 802.8 1404.2L786.933 1403.27L787.867 1412.47C789.133 1425.44 789.647 1428.82 791.393 1429.4H786.933L767.6 1438.6C768.133 1438.07 765.733 1429.8 762.133 1420.33C756.4 1405.27 755.2 1403 752.533 1402.73C750.8 1402.6 744.4 1402.2 738.4 1402.07L727.333 1401.67V1425.93V1450.33L721.067 1450.2C718.353 1450.17 716.383 1450.5 714.7 1449.95C708.944 1448.07 706.565 1435.86 689.333 1363.53C677.733 1315.4 666.933 1273.4 664.133 1265.93C657.067 1246.47 646.8 1209.67 642.133 1187C634.8 1150.6 633.467 1137.8 633.467 1102.33C633.333 1073.53 633.733 1067.93 636.4 1054.6C640 1036.73 644.267 1024.2 651.733 1009.67C658.4 996.867 670.667 981.133 678.267 975.667C681.333 973.4 736.133 945.133 800 913C863.733 880.733 919.6 852.333 924 850.067L932 845.667L934 832.333L936 819L958.667 806.733C971.6 799.8 982 793.267 982.8 791.667C983.6 790.067 984.8 782.067 985.333 773.933C985.867 764.2 996.933 696.6 1016.8 582.333C1033.47 485.133 1047.73 404.2 1048.27 402.333ZM1470.67 814.333C1463.73 803 1461.87 800.867 1452.13 794.067C1446.27 789.933 1438.8 784.6 1435.73 782.333C1432.53 780.067 1430 778.467 1430 779C1430 779.533 1437.87 797.8 1447.47 819.667L1464.93 859.533L1470.67 861.933C1476.27 864.2 1477.07 865.267 1510.8 923.4L1545.2 982.467L1550.93 973.4C1554 968.467 1556.67 963.667 1556.67 962.733C1556.67 961.267 1489.47 845.267 1470.67 814.333ZM1069.07 879.4C1048.8 859.667 1031.33 849.533 1010.27 845.533C975.067 838.867 954.267 852.067 946 886.6C934 937 952.267 1037.4 998 1173C1009.33 1206.33 1021.47 1239.53 1020.27 1233.67C1020.17 1233.32 1019.88 1232.23 1019.44 1230.54C1018 1225.09 1014.93 1213.45 1011.47 1200.73C984 1099.13 969.733 1016.73 969.6 960.333C969.467 911.533 977.6 890.867 1000 882.467C1021.47 874.467 1047.6 877 1072.8 889.8C1077.87 892.333 1082 893.933 1082 893.267C1082 892.6 1076.13 886.467 1069.07 879.4ZM1672.53 881.667L1665.6 875.267C1664.76 874.516 1663.83 873.677 1662.85 872.794C1659.3 869.602 1655.12 865.831 1652.4 863.533L1646 858.067V863.267C1646.13 871.667 1652.13 931.667 1653.07 932.467C1654.13 933.533 1675.73 939.8 1676.27 939.133C1676.53 939 1675.73 925.933 1674.67 910.2L1672.53 881.667ZM1795.73 885.933C1793.87 880.6 1790.93 873.133 1789.07 869.267C1785.47 861.667 1784.53 861.267 1773.33 863.8C1724.13 874.733 1705.87 878.867 1704.67 879.667C1703.47 880.467 1703.87 885.667 1706.4 901C1708.27 912.2 1710.13 921.533 1710.4 921.933C1711.07 922.467 1723.2 920.733 1731.2 918.867L1734.4 918.2L1733.6 899.533C1732.8 881.267 1732.8 881 1735.73 880.333C1736.7 880.091 1739.42 879.459 1742.81 878.673C1745.03 878.159 1747.52 877.58 1750 877C1756.27 875.533 1762.27 874.333 1763.33 874.333C1764.4 874.333 1769.33 880.333 1774.4 887.667L1783.33 900.867L1791.33 898.2L1799.2 895.4L1795.73 885.933ZM904.667 1033.67C905.2 1033.4 902.8 1021.13 899.467 1006.47C896 991.8 892.933 979.533 892.533 979.133C892.133 978.733 872.933 989.267 849.867 1002.47C826.8 1015.8 786.4 1038.33 760 1052.6C733.6 1066.87 711.6 1079 710.933 1079.53C709.6 1080.87 711.333 1089 713.067 1089C714.533 1089 903.333 1034.47 904.667 1033.67ZM935.2 1157.4C935.6 1157.13 931.333 1143.13 926 1126.33C918.667 1103.27 915.6 1095.67 914.133 1095.8C912.933 1095.8 891.6 1104.2 866.667 1114.47C849.815 1121.32 825.473 1131.27 803.6 1140.21C793.11 1144.5 783.188 1148.56 774.933 1151.93L728.4 1171L729.2 1176.87C729.6 1180.2 730.267 1183.13 730.667 1183.4C731.333 1184.07 934.267 1158.33 935.2 1157.4ZM972.533 1266.87C972.8 1266.6 967.733 1253.8 961.2 1238.33C953.067 1219.13 948.667 1210.33 947.333 1210.47C938.667 1210.87 894.4 1225.27 827.333 1249.4C749.333 1277.53 742.4 1280.47 749.2 1283.13C751.2 1283.93 971.467 1267.8 972.533 1266.87Z" fill="black"/>
<path fill-rule="evenodd" clip-rule="evenodd" d="M683.733 1466.33C728.8 1453.4 764.533 1441.67 767.6 1438.6L786.933 1429.4H791.393C791.853 1429.55 792.399 1429.51 793.067 1429.4C794.8 1429.13 804 1432.6 815.067 1437.67C825.6 1442.6 834.533 1446.33 834.8 1446.07L867.333 1460.87C867.333 1461.53 871.467 1462.87 876.4 1463.67C885.467 1465.27 885.467 1465.27 893.2 1461C897.467 1458.6 901.2 1455.93 901.467 1455L934.267 1451.8L950.533 1451C959.333 1450.6 970.933 1449.93 976.133 1449.53L985.733 1448.73H1019.23C1021 1451.01 1023.22 1451.62 1027.47 1453.8L1036.93 1458.47L1043.87 1452.87C1047.6 1449.67 1056.53 1442.07 1063.6 1435.93L1076.67 1424.87L1102.27 1401.67C1102.8 1402.2 1109.33 1397.4 1116.93 1391L1130.67 1379.27L1179.2 1306.47C1205.87 1266.47 1228.27 1233.4 1228.8 1233C1229.47 1232.47 1246.27 1229 1266.27 1225.13L1302.67 1218.07L1336.67 1220.87C1355.47 1222.47 1371.73 1223.67 1372.8 1223.67C1378 1246.5 1504 1236 1509.47 1213.93C1510.93 1214.47 1611.33 1204.07 1641.47 1200.33C1651.47 1199.13 1669.2 1198.33 1689.73 1198.33H1722.13L1757.07 1189.67C1801.47 1178.47 1802.4 1178.2 1801.73 1177.67L1812 1192.33C1812 1192.33 1939.2 1195 1960 1192.33C1980.8 1189.67 1986.13 1187.67 1986.13 1187.67C1986.13 1187.67 2005.2 1193.8 2027.2 1200.33L2067.2 1212.2L2128.93 1258.07C2162.93 1283.27 2191.73 1304.6 2193.2 1305.67C2194.53 1306.73 2224.53 1374.47 2262.8 1463.13C2299.73 1548.73 2330 1619 2330 1619.27C2330 1619.53 1805.73 1619.67 1165.07 1619.67L0 1619.53L14 1613.8C21.7333 1610.6 65.2 1593 110.667 1574.6C197.6 1539.53 260.4 1513.93 281.867 1504.73C295.733 1498.87 306 1492.2 375.333 1443.27L418.667 1412.6L460 1408.33C482.8 1405.93 506.8 1403.53 513.467 1403L525.467 1402.07L542.133 1414.47C551.2 1421.27 574.4 1439 593.6 1453.93C612.8 1468.87 629.333 1481 630.133 1481C631.067 1481 655.2 1474.33 683.733 1466.33ZM2070.8 1277.4C2070.67 1277.27 2063.33 1273.67 2054.67 1269.53C2015.87 1251.27 2011.33 1249.13 2011.33 1250.33C2011.33 1250.87 2014.93 1268.07 2019.33 1288.6C2023.73 1309 2027.33 1326.73 2027.33 1327.93C2027.33 1329.27 2006.4 1360.07 1980.8 1396.6C1955.2 1433.13 1934.27 1463.13 1934.53 1463.27C1934.8 1463.53 2095.6 1410.33 2096.4 1409.67C2096.8 1409.4 2071.33 1277.93 2070.8 1277.4ZM2174.8 1326.47L2147.6 1308.73C2132.53 1299 2119.6 1290.73 2118.93 1290.47C2118.27 1290.2 2118.27 1291.13 2119.07 1292.47C2119.73 1293.93 2133.73 1322.87 2150 1357C2166.27 1391.13 2179.87 1419.27 2180.27 1419.67C2180.67 1420.07 2180.67 1417.27 2180.13 1413.67C2179.73 1409.93 2178.4 1388.87 2177.2 1366.73L2174.8 1326.47ZM1257.33 1323.8C1257.07 1323.53 1251.47 1322.2 1245.07 1320.87C1238.67 1319.53 1232.4 1318.47 1231.33 1318.47C1230.13 1318.47 1209.2 1348.6 1180.93 1391C1154.4 1431 1132.8 1463.67 1133.07 1463.67C1134.13 1463.67 1205.07 1430.47 1206.13 1429.4C1207.73 1427.8 1257.87 1324.47 1257.33 1323.8ZM1306.67 1415.8C1304.8 1415 1299.33 1404.73 1289.47 1382.87C1274.93 1351.13 1272.67 1346.73 1272.67 1350.33C1272.67 1351.4 1271.47 1375.53 1269.87 1404.07L1267.07 1455.8L1274.93 1465.4C1281.33 1473.27 1340.13 1545.67 1341.6 1547.53C1342.27 1548.47 1484.67 1531.13 1484.4 1530.2C1484.13 1529.67 1470.8 1516.73 1454.67 1501.53C1438.53 1486.33 1415.73 1464.73 1403.87 1453.53L1382.4 1433.13L1345.87 1425C1325.73 1420.6 1308.13 1416.47 1306.67 1415.8ZM454.133 1501.53C480.133 1475.53 476.667 1480.6 489.6 1449.27L491.333 1445H462.4L433.333 1445.13L384 1479C356.933 1497.67 318.933 1522.47 299.6 1533.93C280.4 1545.53 265.067 1555.13 265.733 1555.4C266.267 1555.53 303.6 1548.87 348.667 1540.47L430.533 1525.13L454.133 1501.53ZM594 1487.67C594 1487.27 579.333 1478.33 561.467 1467.93C543.733 1457.53 528.667 1449 528.133 1449C526.933 1449 526.933 1449.53 531.333 1470.87L535.333 1490.6L522.8 1516.73C516 1531.27 510.533 1543.13 510.8 1543.4C511.2 1544.07 594 1488.73 594 1487.67ZM904.267 1565.8C904.533 1565.53 896.133 1551.8 885.733 1535.4L866.667 1505.4L832.4 1485.27C813.467 1474.2 798 1465.67 798 1466.2C798 1468.87 806.267 1504.47 807.067 1505.27C809.067 1507.13 903.867 1566.2 904.267 1565.8ZM735.067 1487.67C746.933 1476.47 756.667 1467.13 756.667 1466.87C756.667 1466.6 756.267 1466.33 755.733 1466.33C753.6 1466.47 648 1503.93 646.933 1505C645.733 1506.07 674.667 1532.33 677.067 1532.2C681.867 1531.8 715.333 1506.07 735.067 1487.67Z" fill="#EB5A2F"/>
<path d="M165.6 1659.8C131.6 1662.6 97.6002 1673.53 72.8002 1689.53L63.3335 1695.67V1913.53V2131.53L70.9335 2136.73C95.8668 2153.67 129.067 2164.47 166.4 2167.8C187.067 2169.67 209.867 2167.93 232.534 2162.87C257.467 2157.27 275.067 2150.07 294.934 2137.27L304.667 2131V2042.6V1954.33H256H207.333V2024.87C207.333 2087.27 207.067 2095.67 205.2 2097.53C202.133 2100.6 165.867 2100.6 162.8 2097.53C160.934 2095.67 160.667 2077.13 160.667 1913.8C160.667 1739.4 160.8 1731.93 163.067 1729.93C165.067 1728.07 168.667 1727.67 184.267 1727.67C200.667 1727.67 203.2 1727.93 205.067 1730.07C207.067 1732.33 207.333 1739.27 207.333 1801.4V1870.33H256H304.667V1783.67V1697L298.4 1692.47C281.734 1680.33 254.133 1669 228.267 1663.67C217.334 1661.4 184.667 1657.93 180.133 1658.47C179.334 1658.6 172.8 1659.13 165.6 1659.8Z" fill="black"/>
<path d="M462.667 1659.8C427.867 1662.47 394 1673.27 368.4 1689.8L359.333 1695.67V1927.67V2159.67H408H456.667V2063V1966.33H480H503.333V2063V2159.67H552.667H602V1928.47V1697.13L597.467 1693.67C566.534 1670.07 510.534 1655.93 462.667 1659.8ZM500.934 1729.93C503.2 1731.93 503.333 1736.2 503.333 1811.93V1891.67H480H456.667V1812.07C456.667 1739.93 456.934 1732.33 458.934 1730.07C460.8 1727.93 463.334 1727.67 479.734 1727.67C495.333 1727.67 498.934 1728.07 500.934 1729.93Z" fill="black"/>
<path d="M1833.33 1659.8C1797.87 1662.73 1763.2 1673.93 1738.4 1690.73L1730 1696.33V1913.8V2131.4L1740.93 2138.33C1775.07 2160.33 1824.27 2171.67 1868.27 2167.8C1904.93 2164.6 1936.4 2154.6 1961.87 2138.33L1972.67 2131.4V1913.8V1696.2L1964.4 1690.73C1937.07 1672.87 1904.67 1662.73 1866 1659.67C1856.8 1659 1848.8 1658.47 1848 1658.6C1847.33 1658.6 1840.67 1659.13 1833.33 1659.8ZM1871.47 1729C1874 1730.47 1874 1733.93 1874 1913.67C1874 2093.4 1874 2096.87 1871.47 2098.33C1870 2099 1860.53 2099.67 1850.13 2099.67C1832 2099.67 1831.33 2099.53 1829.33 2096.6C1827.47 2093.8 1827.33 2073.27 1827.6 1912.47C1828 1735 1828 1731.4 1830.53 1729.53C1833.73 1727.27 1867.33 1726.87 1871.47 1729Z" fill="black"/>
<path d="M656.667 1914.33V2159.67H750H843.333V2117.67V2075.67H798.667H754V1872.33V1669H705.333H656.667V1914.33Z" fill="black"/>
<path d="M891.333 1914.33V2159.93L962.4 2159.27C1036.93 2158.6 1048.93 2157.8 1077.87 2151.53C1094 2147.93 1106.27 2143.67 1121.07 2136.07L1132.67 2130.07L1132.4 1913.93L1132 1697.8L1125.47 1693.93C1109.33 1684.47 1085.07 1677 1055.33 1672.2C1043.73 1670.33 1028.67 1669.8 966.4 1669.4L891.333 1668.87V1914.33ZM1028.27 1734.47C1030.27 1735.13 1032.4 1736.6 1032.93 1737.4C1033.47 1738.33 1034 1818.07 1034 1914.6V2090.2L1031.07 2092.2C1028.67 2093.93 1024 2094.33 1008.4 2094.33H988.667V1914.6C988.667 1815.67 989.067 1734.33 989.6 1733.93C991.067 1732.47 1024.13 1732.87 1028.27 1734.47Z" fill="black"/>
<path d="M1187.33 1914.33V2159.67H1283.33H1379.33V2117.67V2075.67H1332.67H1286V2015V1954.33H1328H1370V1916.33V1878.33H1328H1286V1815.67V1753H1332.67H1379.33V1711V1669H1283.33H1187.33V1914.33Z" fill="black"/>
<path d="M1431.33 1914.2V2159.67H1480H1528.67V2063.67V1967.67H1549.73C1564.4 1967.67 1571.33 1968.2 1572.4 1969.27C1573.6 1970.47 1574 1993.67 1574 2065.27V2159.67H1624.67H1675.33V2061.27V1962.73L1667.07 1954.73C1662.4 1950.47 1654 1943.4 1648.4 1939.13C1642.67 1934.87 1638 1931.13 1638 1931C1638 1930.87 1642.4 1927.4 1647.87 1923.27C1653.2 1919.27 1661.6 1911.93 1666.53 1907L1675.33 1897.93V1798.2V1698.47L1666.4 1693.4C1648.8 1683.67 1627.6 1677 1598 1672.2C1586.27 1670.2 1571.6 1669.8 1507.73 1669.4L1431.33 1668.87V1914.2ZM1568.27 1734.47C1570.27 1735.13 1572.4 1736.6 1572.93 1737.4C1573.47 1738.33 1574 1772.87 1574 1814.33C1574 1871.27 1573.6 1890.2 1572.4 1891.4C1571.33 1892.47 1564.4 1893 1549.73 1893H1528.67V1813.93C1528.67 1770.33 1529.07 1734.33 1529.6 1733.93C1531.07 1732.47 1564.13 1732.87 1568.27 1734.47Z" fill="black"/>
<path d="M2027.33 1914.33V2159.67H2076H2124.67V1995.67C2124.67 1905.4 2125.07 1831.67 2125.73 1831.67C2126.27 1831.8 2136.67 1848.07 2148.93 1868.07L2171.33 1904.33V2031.93V2159.67H2220.67H2270V1914.33V1669H2221.33H2172.67V1719.93C2172.67 1754.07 2172.27 1770.47 2171.33 1769.53C2170.53 1768.73 2156.53 1746.07 2140.27 1718.87L2110.53 1669.67L2068.93 1669.27L2027.33 1669V1914.33Z" fill="black"/>
<path d="M431.067 2214.47C401.2 2218.87 382 2246.6 386 2279.13C387.467 2290.87 394.8 2305.8 402.4 2312.47C405.467 2315.13 411.867 2319.27 416.667 2321.53C424.934 2325.4 426.134 2325.67 441.334 2325.67C455.867 2325.67 458 2325.4 464.934 2322.07C475.6 2317.13 485.2 2307.67 490 2297.53C492.267 2293 494 2288.87 494 2288.47C494 2288.07 491.734 2287.67 488.934 2287.67C484.4 2287.67 483.734 2288.07 482.267 2292.2C479.734 2299.13 470.667 2308.47 462.8 2312.33C438.934 2323.93 410.134 2314.73 399.734 2292.07C391.067 2273.13 394.667 2249.93 408.534 2236.2C426.267 2218.47 458.134 2218.87 474.534 2237C477.334 2240.07 480.4 2244.6 481.467 2247.13C483.067 2251 484 2251.67 488 2251.67C493.467 2251.67 493.6 2250.6 490 2242.73C486.4 2234.47 475.867 2223.93 467.067 2219.53C460.667 2216.33 445.067 2212.6 440 2213.13C439.334 2213.27 435.2 2213.8 431.067 2214.47Z" fill="black"/>
<path d="M1304.4 2214.47C1284.27 2219.13 1267.6 2236.73 1263.33 2257.67C1257.2 2287.13 1273.33 2315.53 1301.07 2323.93C1308.53 2326.2 1312.67 2326.6 1322.67 2326.07C1344.67 2324.87 1360.27 2314.87 1369.73 2295.93C1374.67 2285.93 1374.67 2285.67 1374.67 2269.8C1374.67 2254.47 1374.4 2253.27 1370.4 2244.73C1365.6 2234.6 1356 2224.07 1347.6 2219.8C1335.6 2213.67 1317.2 2211.4 1304.4 2214.47ZM1339.6 2226.6C1348.93 2230.87 1357.33 2239.4 1361.87 2249C1364.93 2255.4 1365.33 2258.07 1365.33 2269.67C1365.33 2282.07 1365.07 2283.67 1360.93 2291.93C1356 2302.07 1350 2307.93 1339.33 2312.87C1332.93 2315.93 1330.27 2316.33 1318.67 2316.33C1302.8 2316.33 1296.4 2313.93 1286.27 2304.47C1276.4 2295.27 1272.13 2284.73 1272.13 2270.33C1272.13 2247.8 1282.4 2232.73 1303.33 2224.73C1312.4 2221.13 1329.73 2222.07 1339.6 2226.6Z" fill="black"/>
<path d="M1648.8 2214.33C1626 2219.13 1615.6 2245 1630.4 2260.6C1635.47 2265.93 1643.2 2269.27 1659.33 2273C1680.13 2277.93 1686.27 2281.8 1688.27 2291.67C1689.33 2297.4 1685.33 2307 1680.27 2310.87C1670.67 2317.93 1656.53 2319.13 1645.2 2313.8C1637.07 2310.07 1632.53 2304.2 1631.6 2296.2C1631.07 2290.6 1630.8 2290.33 1626.53 2290.33C1622.13 2290.33 1622 2290.47 1622 2295.67C1622 2317.27 1648.8 2331.93 1674.53 2324.47C1696.93 2317.93 1705.6 2290.33 1689.87 2275.4C1684.53 2270.33 1678.67 2268.07 1655.87 2262.2C1642.4 2258.87 1637.07 2255.67 1634.53 2249.53C1629.07 2236.33 1641.73 2222.33 1659.33 2222.33C1672.67 2222.33 1682.4 2229.27 1684.93 2240.6C1686.53 2247.4 1686.8 2247.67 1691.2 2247.67H1695.73L1694.8 2240.73C1693.2 2229.27 1687.47 2221.4 1677.07 2216.73C1670.4 2213.8 1657.07 2212.6 1648.8 2214.33Z" fill="black"/>
<path d="M2103.73 2214.33C2093.6 2215.8 2080.4 2222.47 2073.47 2229.67C2070.13 2233 2065.47 2239.8 2063.07 2244.73C2058.8 2253.4 2058.67 2254.07 2058.67 2270.33C2058.67 2286.6 2058.8 2287.27 2063.07 2295.93C2068.67 2307.27 2077.07 2315.67 2088.4 2321.27C2096.93 2325.53 2097.87 2325.67 2113.33 2325.67C2128.13 2325.67 2130 2325.4 2137.6 2321.8C2149.73 2316.2 2161.47 2303.13 2165.2 2290.6C2166.13 2287.93 2165.73 2287.67 2161.47 2287.67C2157.2 2287.67 2156.4 2288.2 2153.47 2293.93C2142.8 2315 2116.53 2323.13 2092.93 2313C2084.67 2309.4 2075.07 2299.53 2071.07 2290.73C2066.67 2280.73 2066.27 2264.87 2070 2253.53C2077.87 2230.07 2105.2 2217.27 2129.73 2225.53C2138.27 2228.47 2149.87 2238.6 2153.33 2246.2C2155.6 2251.27 2156.13 2251.67 2160.8 2251.67C2165.73 2251.67 2165.87 2251.53 2164.67 2248.33C2160.53 2237.4 2155.2 2230.2 2147.07 2224.07C2135.73 2215.8 2119.07 2212.07 2103.73 2214.33Z" fill="black"/>
<path d="M107.333 2269.67V2325H138.667H170V2320.33V2315.67H143.333H116.667V2293.67V2271.67H140.667H164.667V2267.67V2263.67H140.667H116.667V2243.67V2223.67H142.667H168.667V2219V2214.33H138H107.333V2269.67Z" fill="black"/>
<path d="M236.667 2215C236.667 2215.4 244.4 2226.73 253.733 2240.07C263.067 2253.4 271.2 2265.13 271.867 2266.07C272.667 2267.4 258.4 2289.13 237.067 2318.6L232.4 2325H238.4H244.267L259.333 2303.27C267.733 2291.4 275.467 2280.33 276.8 2278.6C279.067 2275.67 279.2 2275.67 296.267 2300.33L313.333 2324.87L319.067 2325C323.2 2325 324.533 2324.6 323.867 2323.4C323.333 2322.6 314.267 2309.67 303.867 2294.73L284.8 2267.53L300.933 2244.6C309.733 2231.93 318.133 2220.07 319.6 2217.93L322.133 2214.33H316.4H310.533L294.8 2237C286 2249.53 278.8 2259.53 278.667 2259.4C278.533 2259.13 271.333 2249 262.8 2236.6L247.2 2214.33H241.867C239.067 2214.33 236.667 2214.6 236.667 2215Z" fill="black"/>
<path d="M591.6 2239.93C585.733 2254.07 575.067 2279 568.133 2295.4L555.467 2325.13L560.8 2324.73L566.133 2324.33L572.533 2309.67L578.8 2295H606.533H634.4L640.667 2309.67L647.067 2324.33L652.533 2324.73L658 2325.13L655.467 2319.4C654.133 2316.2 643.6 2292.07 632 2265.67C620.533 2239.27 610.8 2216.87 610.4 2215.93C610 2215.13 608.133 2214.33 606.133 2214.33C602.667 2214.33 601.867 2215.53 591.6 2239.93ZM618.4 2257.93L629.867 2284.33L607.067 2284.73C594.533 2284.87 584.133 2284.87 583.867 2284.6C583.067 2283.93 605.2 2231.67 606.133 2231.67C606.533 2231.67 612.133 2243.53 618.4 2257.93Z" fill="black"/>
<path d="M711.6 2215.53C711.867 2216.33 722.267 2241.13 734.667 2271L757.334 2325.13L761.2 2324.73C765.067 2324.33 765.6 2323.27 785.334 2275C796.4 2247.8 806.534 2223.13 807.733 2219.93L810 2214.33H804.8H799.733L793.067 2230.6C789.334 2239.67 780.8 2260.73 774 2277.4C767.2 2294.2 761.2 2307.4 760.667 2306.73C760.134 2306.2 751.067 2285.13 740.533 2259.93L721.6 2214.33H716.267C713.467 2214.33 711.333 2214.87 711.6 2215.53Z" fill="black"/>
<path d="M887.067 2269.8L863.6 2325.13L869.067 2324.73L874.4 2324.33L880.667 2309.67L886.933 2295H914.667H942.533L948.8 2309.67L955.2 2324.33L960.533 2324.73L966 2325.13L961.467 2314.73C952.8 2294.6 920.933 2221.67 919.2 2217.93C918 2215.4 916.533 2214.33 914.133 2214.33C910.8 2214.33 909.467 2216.87 887.067 2269.8ZM915.067 2284.73C902.533 2284.87 892.133 2284.87 891.867 2284.6C891.6 2284.33 896.133 2273.13 901.733 2259.53C907.467 2246.07 912.667 2233.8 913.2 2232.33C913.867 2230.33 916.933 2236.2 926 2257L937.867 2284.33L915.067 2284.73Z" fill="black"/>
<path d="M1018 2219V2223.53L1035.07 2223.93L1052 2224.33L1052.4 2274.6L1052.67 2325H1057.33H1062V2274.33V2223.67H1079.33H1096.67V2219V2214.33H1057.33H1018V2219Z" fill="black"/>
<path d="M1172.67 2269.67V2325H1177.33H1182V2269.67V2214.33H1177.33H1172.67V2269.67Z" fill="black"/>
<path d="M1456.67 2269.67V2325H1461.33H1466L1466.27 2279.4L1466.67 2233.67L1499.87 2279.4C1530.13 2321 1533.33 2325 1536.8 2325H1540.67V2269.67V2214.33H1536H1531.33L1531.07 2259.93L1530.67 2305.67L1497.47 2259.93C1467.2 2218.07 1464.13 2214.33 1460.53 2214.33H1456.67V2269.67Z" fill="black"/>
<path d="M1831.33 2269.67V2325H1836H1840.67V2269.67V2214.33H1836H1831.33V2269.67Z" fill="black"/>
<path d="M1910 2269.67V2325H1914.67H1919.33V2279.67C1919.33 2254.73 1919.73 2234.33 1920.4 2234.33C1920.93 2234.47 1936 2254.73 1954 2279.67C1985.33 2323 1986.8 2324.87 1991.07 2325H1995.33V2269.67V2214.33H1990.67H1986V2259.67C1986 2284.6 1985.6 2305 1985.07 2305C1984.4 2304.87 1969.33 2284.6 1951.33 2259.67C1920 2216.33 1918.53 2214.47 1914.4 2214.33H1910V2269.67Z" fill="black"/>
<path d="M2216.67 2318.33V2325H2222.67H2228.67V2318.33V2311.67H2222.67H2216.67V2318.33Z" fill="black"/>
</svg>
