<svg width="2907" height="613" viewBox="0 0 2907 613" fill="none" xmlns="http://www.w3.org/2000/svg">
<path fill-rule="evenodd" clip-rule="evenodd" d="M157.184 447.178C157.184 428.201 157.34 391.172 157.558 348.763L224.583 309.919C224.249 392.512 224.232 391.816 223.151 398.027C222.203 403.427 222.053 406.202 222.053 417.203C222.053 430.273 222.802 439.256 224.598 447.733C226.993 458.785 230.636 472.561 233.281 480.534C235.377 486.741 238.121 497.137 242.013 513.588C245.107 526.759 247.602 537.608 247.552 537.709C247.452 537.76 227.093 525.8 202.293 511.115L157.184 484.42V447.178ZM590.314 167.411C570.955 155.937 550.397 144.837 530.871 133.265L597.487 94.2398C621.101 108.189 643.774 120.634 658.478 129.312L714.914 162.617L714.615 189.363C714.465 204.047 714.166 245.377 714.016 281.105C713.767 333.737 713.567 346 713.068 345.445C712.719 345.092 711.172 340.096 709.675 334.393L706.98 323.998L689.665 303.964C680.134 292.963 672.15 283.981 671.901 283.981C671.651 283.981 667.21 284.99 662.07 286.302C656.931 287.564 651.442 288.876 649.945 289.229L647.2 289.885V245.528V201.121L590.314 167.411Z" fill="black"/>
<path d="M159.18 160.271L298.151 80.1859C374.597 36.0812 437.271 6.10352e-05 437.421 6.10352e-05C437.571 -0.050354 474.646 21.8001 519.856 48.4951C543.647 62.5699 571.257 78.7448 597.487 94.2398L530.871 133.265C482.302 104.481 440.114 79.4854 438.619 78.6215L437.122 77.7132L331.334 138.673L225.546 199.632L225.247 209.422C225.047 214.821 224.798 258.27 224.598 306.008L224.583 309.919L157.558 348.763C157.969 268.702 158.602 173.947 158.83 168.042L159.18 160.271Z" fill="#EB5A2F"/>
<path fill-rule="evenodd" clip-rule="evenodd" d="M392.313 152.272C392.612 151.364 396.005 148.942 405.187 143.088C412.073 138.748 417.911 135.216 418.261 135.266C418.61 135.317 421.654 137.689 425.047 140.565L431.235 145.763L431.035 150.153L430.785 154.543L444.009 168.219L457.232 181.844L465.815 182.954C470.556 183.509 474.647 184.216 474.947 184.468C475.296 184.72 491.164 197.941 510.226 213.837L544.906 242.702L557.381 257.488L569.856 272.274L590.315 312.896C601.593 335.251 610.824 353.216 610.924 352.913C610.974 352.56 610.026 344.032 608.778 333.99C607.531 323.897 606.583 315.571 606.682 315.47C606.724 315.385 616.027 313.101 628.472 310.046C630.87 309.457 633.386 308.839 635.974 308.203C652.041 304.318 665.564 300.987 666.013 300.836C666.612 300.634 670.105 304.368 679.187 314.864C683.001 319.289 686.564 323.395 689.041 326.25C690.971 328.475 692.242 329.94 692.46 330.205C693.009 330.811 694.506 335.554 696.153 341.812C697.7 347.615 699.247 352.813 699.596 353.368C699.945 353.923 704.985 358.464 710.774 363.46L721.302 372.544L727.54 391.467C730.933 401.863 733.628 410.441 733.528 410.542C733.428 410.643 731.931 409.836 730.234 408.675C728.488 407.565 726.991 406.758 726.891 406.858C726.592 407.111 744.755 449.058 743.308 449.5C743.308 449.5 741.312 450.257 733.528 451.266C725.744 452.275 678.139 451.266 678.139 451.266L674.297 445.715C674.197 445.614 670.205 445.16 665.415 444.706C657.63 444.05 634.826 443.747 629.487 444.302C614.716 445.765 607.281 447.229 595.056 451.266C585.325 454.445 571.603 458.129 566.862 458.886C565.515 459.088 564.617 459.34 564.916 459.441C562.87 467.793 515.715 471.767 513.769 463.125C513.769 462.872 513.47 462.494 512.671 457.372C509.228 447.027 507.282 434.462 507.981 427.397L508.33 423.965L520.106 421.039C526.593 419.424 532.082 417.96 532.282 417.758C532.481 417.607 532.881 413.822 533.18 409.382L533.779 401.308L539.268 390.458C542.312 384.503 545.006 379.457 545.256 379.306C545.455 379.154 549.847 378.296 555.036 377.388C560.176 376.48 564.567 375.521 564.767 375.319C565.016 375.117 560.375 365.479 554.437 353.973L543.659 333.031V329.701C543.659 326.572 543.31 325.613 535.974 308.657C531.733 298.918 528.19 290.894 528.09 290.844C528.042 290.82 523.3 288.254 515.62 284.097C507.286 279.588 495.492 273.206 482.482 266.168C457.482 252.643 436.923 241.592 436.823 241.592C436.724 241.592 433.63 264.452 429.937 292.459L423.201 343.275L432.432 358.666C437.522 367.144 443.111 376.833 444.857 380.164L448.051 386.32L445.855 390.004C444.508 392.325 441.913 395.504 439.069 398.431C423.6 414.075 413.67 434.966 409.828 460.097C408.879 466.455 408.979 490.627 410.027 497.086L410.826 502.032L408.43 507.431L405.985 512.831L409.079 521.511C410.776 526.254 412.323 530.342 412.522 530.493L402.941 539.273L400.496 535.388L400.492 535.38C399.194 533.261 397.252 530.087 396.155 528.323C393.91 524.74 393.86 524.74 387.971 526.204C385.926 526.708 382.532 527.415 380.486 527.717C379.845 527.828 379.214 527.934 378.64 528.03C377.383 528.241 376.401 528.405 376.195 528.474C375.796 528.575 376.245 531.048 377.592 535.892C377.942 537.196 378.253 538.363 378.531 539.409C380.042 545.087 380.607 547.208 381.448 548.306H368.91L364.618 539.273L360.327 530.241H354.688C351.594 530.241 349.049 530.392 349 530.594C348.9 531.149 348.95 532.411 349.349 541.494L349.648 549.467L337.373 550.678C337.523 550.375 336.175 546.036 334.429 541.04L331.185 532.007L326.145 531.855C323.401 531.805 321.106 531.855 321.106 531.956C321.106 532.108 321.904 536.801 322.852 542.352C323.8 547.903 324.599 552.697 324.599 552.899L312.423 547.297C312.523 547.146 307.982 535.388 306.435 531.906C306.385 531.855 303.74 531.654 300.447 531.452L294.509 531.098L294.858 534.58C295.332 539.492 295.525 540.77 296.178 540.989H294.509L287.273 544.471C287.473 544.269 286.575 541.141 285.228 537.558C283.082 531.855 282.633 530.998 281.635 530.897C280.986 530.846 278.591 530.695 276.345 530.644L272.204 530.493V539.677V548.912L269.858 548.861C268.843 548.85 268.105 548.975 267.476 548.767C265.322 548.055 264.431 543.435 257.982 516.06C253.641 497.843 249.599 481.947 248.551 479.122C245.907 471.754 242.064 457.826 240.318 449.247C237.573 435.471 237.074 430.627 237.074 417.203C237.024 406.303 237.174 404.184 238.172 399.138C239.519 392.376 241.116 387.632 243.91 382.132C246.405 377.287 250.996 371.333 253.841 369.264C254.988 368.406 275.497 357.707 299.399 345.546C323.251 333.334 344.159 322.585 345.806 321.727L348.8 320.062L349.549 315.016L350.297 309.969L358.78 305.327C363.62 302.703 367.512 300.23 367.812 299.625C368.111 299.019 368.56 295.991 368.76 292.913C368.96 289.229 373.101 263.644 380.536 220.398C386.774 183.61 392.113 152.979 392.313 152.272ZM550.395 308.203C547.801 303.914 547.102 303.106 543.459 300.533C541.264 298.968 538.469 296.95 537.322 296.092C536.124 295.234 535.176 294.629 535.176 294.831C535.176 295.032 538.12 301.946 541.713 310.222L548.25 325.31L550.395 326.219C552.491 327.076 552.791 327.48 565.415 349.482L578.289 371.837L580.435 368.406C581.583 366.539 582.581 364.722 582.581 364.369C582.581 363.814 557.431 319.911 550.395 308.203ZM400.097 332.829C392.512 325.361 385.975 321.525 378.091 320.012C364.918 317.488 357.133 322.484 354.039 335.554C349.549 354.629 356.385 392.628 373.5 443.949C377.742 456.565 382.283 469.13 381.834 466.91C381.798 466.778 381.69 466.364 381.523 465.724C380.985 463.663 379.835 459.26 378.54 454.445C368.261 415.992 362.922 384.806 362.872 363.46C362.822 344.991 365.866 337.169 374.249 333.99C382.283 330.962 392.063 331.921 401.494 336.765C403.39 337.724 404.937 338.33 404.937 338.077C404.937 337.825 402.742 335.504 400.097 332.829ZM625.944 333.687L623.349 331.265C623.035 330.981 622.687 330.663 622.32 330.329C620.993 329.121 619.425 327.694 618.409 326.824L616.014 324.755V326.723C616.064 329.902 618.309 352.611 618.658 352.913C619.058 353.317 627.141 355.689 627.341 355.437C627.441 355.386 627.141 350.441 626.742 344.486L625.944 333.687ZM672.051 335.302C671.353 333.283 670.255 330.457 669.556 328.994C668.209 326.118 667.86 325.966 663.668 326.925C645.255 331.063 638.419 332.627 637.97 332.93C637.521 333.233 637.67 335.201 638.618 341.004C639.317 345.243 640.016 348.776 640.115 348.927C640.365 349.129 644.906 348.473 647.9 347.766L649.097 347.514L648.798 340.449C648.499 333.536 648.499 333.435 649.596 333.182C649.958 333.091 650.978 332.852 652.246 332.554C653.074 332.36 654.009 332.14 654.936 331.921C657.281 331.366 659.526 330.912 659.926 330.912C660.325 330.912 662.171 333.182 664.067 335.958L667.411 340.954L670.405 339.944L673.349 338.885L672.051 335.302ZM338.571 391.215C338.77 391.114 337.872 386.471 336.624 380.92C335.327 375.37 334.179 370.727 334.03 370.576C333.88 370.424 326.694 374.411 318.062 379.407C309.429 384.453 294.309 392.981 284.429 398.381C274.549 403.78 266.316 408.372 266.066 408.574C265.567 409.079 266.216 412.157 266.864 412.157C267.413 412.157 338.072 391.518 338.571 391.215ZM349.998 438.045C350.147 437.944 348.551 432.645 346.555 426.287C343.81 417.557 342.662 414.68 342.113 414.731C341.664 414.731 333.68 417.91 324.349 421.796C318.042 424.388 308.932 428.155 300.746 431.541C296.821 433.164 293.107 434.7 290.018 435.976L272.603 443.192L272.902 445.412C273.052 446.674 273.302 447.784 273.451 447.885C273.701 448.137 349.648 438.398 349.998 438.045ZM363.97 479.475C364.069 479.374 362.173 474.529 359.728 468.676C356.684 461.409 355.038 458.078 354.538 458.129C351.295 458.28 334.728 463.73 309.629 472.864C280.437 483.512 277.842 484.622 280.387 485.631C281.136 485.934 363.57 479.828 363.97 479.475Z" fill="black"/>
<path fill-rule="evenodd" clip-rule="evenodd" d="M255.886 554.967C272.753 550.073 286.126 545.632 287.273 544.471L294.509 540.989H296.178C296.35 541.047 296.554 541.031 296.804 540.989C297.453 540.888 300.896 542.2 305.038 544.118C308.98 545.985 312.323 547.398 312.423 547.297L324.599 552.899C324.599 553.151 326.145 553.655 327.992 553.958C331.385 554.564 331.385 554.564 334.279 552.949C335.876 552.041 337.273 551.031 337.373 550.678L349.648 549.467L355.736 549.164C359.029 549.013 363.371 548.761 365.317 548.609L368.91 548.306H381.448C382.107 549.168 382.937 549.399 384.528 550.224L388.071 551.99L390.666 549.871C392.063 548.66 395.406 545.783 398.051 543.462L402.941 539.273L412.522 530.493C412.722 530.695 415.167 528.878 418.011 526.456L423.151 522.015L441.314 494.462C451.294 479.323 459.677 466.809 459.877 466.657C460.127 466.455 466.414 465.143 473.899 463.68L487.522 461.005L500.246 462.065C507.282 462.671 513.37 463.125 513.769 463.125C515.715 471.767 562.87 467.793 564.916 459.441C565.465 459.643 603.04 455.707 614.317 454.294C618.06 453.84 624.696 453.537 632.381 453.537H644.507L657.58 450.257C674.197 446.018 674.546 445.917 674.297 445.715L678.139 451.266C678.139 451.266 725.744 452.275 733.528 451.266C741.312 450.257 743.308 449.5 743.308 449.5C743.308 449.5 750.444 451.821 758.677 454.294L773.647 458.785L796.751 476.144C809.475 485.682 820.254 493.756 820.803 494.16C821.302 494.563 832.529 520.198 846.85 553.756C860.673 586.154 872 612.748 872 612.849C872 612.95 675.794 613 436.025 613L0 612.95L5.23949 610.78C8.13368 609.569 24.401 602.907 41.4169 595.943C73.9516 582.672 97.4544 572.983 105.488 569.501C110.678 567.28 114.52 564.757 140.468 546.237L156.686 534.631L172.155 533.016C180.687 532.108 189.669 531.199 192.164 530.998L196.655 530.644L202.893 535.337C206.286 537.911 214.969 544.623 222.154 550.274C229.34 555.926 235.527 560.518 235.827 560.518C236.176 560.518 245.208 557.995 255.886 554.967ZM774.995 483.461C774.945 483.411 772.2 482.048 768.957 480.484C754.436 473.571 752.739 472.763 752.739 473.217C752.739 473.419 754.087 479.929 755.733 487.7C757.38 495.421 758.727 502.133 758.727 502.587C758.727 503.091 750.893 514.748 741.312 528.575C731.732 542.402 723.897 553.756 723.997 553.807C724.097 553.908 784.276 533.773 784.576 533.521C784.725 533.42 775.194 483.663 774.995 483.461ZM813.917 502.032L803.737 495.32C798.098 491.636 793.258 488.508 793.009 488.407C792.759 488.306 792.759 488.659 793.058 489.164C793.308 489.719 798.547 500.669 804.635 513.588C810.723 526.506 815.813 537.154 815.963 537.305C816.112 537.457 816.112 536.397 815.913 535.035C815.763 533.622 815.264 525.648 814.815 517.272L813.917 502.032ZM470.556 501.023C470.456 500.922 468.36 500.417 465.965 499.912C463.57 499.408 461.224 499.004 460.825 499.004C460.376 499.004 452.542 510.409 441.963 526.456C432.033 541.595 423.949 553.958 424.049 553.958C424.448 553.958 450.995 541.393 451.394 540.989C451.993 540.384 470.755 501.275 470.556 501.023ZM489.019 535.842C488.32 535.539 486.274 531.654 482.582 523.378C477.142 511.367 476.294 509.702 476.294 511.065C476.294 511.468 475.845 520.602 475.246 531.401L474.198 550.981L477.142 554.614C479.538 557.592 501.543 584.993 502.092 585.699C502.342 586.053 555.635 579.493 555.535 579.139C555.435 578.937 550.445 574.043 544.407 568.29C538.37 562.537 529.837 554.362 525.396 550.123L517.362 542.402L503.689 539.324C496.154 537.659 489.568 536.094 489.019 535.842ZM169.959 568.29C179.689 558.449 178.392 560.367 183.232 548.508L183.881 546.893H173.053L162.175 546.944L143.712 559.761C133.582 566.826 119.36 576.212 112.125 580.552C104.939 584.943 99.2009 588.576 99.4504 588.677C99.65 588.727 113.622 586.204 130.488 583.025L161.127 577.222L169.959 568.29ZM222.304 563.042C222.304 562.89 216.815 559.509 210.128 555.573C203.492 551.637 197.853 548.407 197.653 548.407C197.204 548.407 197.204 548.609 198.851 556.683L200.348 564.152L195.657 574.043C193.112 579.543 191.067 584.034 191.166 584.135C191.316 584.387 222.304 563.445 222.304 563.042ZM338.421 592.613C338.521 592.512 335.377 587.314 331.485 581.107L324.349 569.753L311.525 562.133C304.439 557.945 298.651 554.715 298.651 554.917C298.651 555.926 301.744 569.4 302.044 569.703C302.792 570.409 338.271 592.764 338.421 592.613ZM275.098 563.042C279.539 558.803 283.182 555.27 283.182 555.169C283.182 555.068 283.032 554.967 282.832 554.967C282.034 555.018 242.513 569.198 242.114 569.602C241.665 570.005 252.493 579.947 253.391 579.896C255.188 579.745 267.713 570.005 275.098 563.042Z" fill="#EB5A2F"/>
<path d="M1001.6 1.26959C970.811 3.8306 940.026 13.8306 917.571 28.4648L909 34.0746V233.344V432.735L915.881 437.491C938.457 452.979 968.517 462.857 1002.32 465.905C1021.03 467.613 1041.68 466.027 1062.2 461.393C1084.78 456.271 1100.71 449.686 1118.7 437.979L1127.51 432.247V351.393V270.661H1083.45H1039.38V335.173C1039.38 392.247 1039.14 399.93 1037.45 401.637C1034.67 404.442 1001.84 404.442 999.061 401.637C997.371 399.93 997.129 382.978 997.129 233.588C997.129 74.0747 997.25 67.2455 999.302 65.4162C1001.11 63.7089 1004.37 63.343 1018.5 63.343C1033.35 63.343 1035.64 63.5869 1037.33 65.5381C1039.14 67.6113 1039.38 73.9528 1039.38 130.782V193.831H1083.45H1127.51V114.563V35.2941L1121.84 31.1478C1106.75 20.0502 1081.76 9.68427 1058.34 4.80621C1048.44 2.73303 1018.86 -0.437714 1014.76 0.0500793C1014.03 0.172028 1008.12 0.659851 1001.6 1.26959Z" fill="black"/>
<path d="M1270.57 1.26999C1239.06 3.70901 1208.4 13.5871 1185.22 28.7091L1177.01 34.075V246.271V458.467H1221.07H1265.14V370.052V281.637H1286.27H1307.39V370.052V458.467H1352.06H1396.73V247.003V35.4164L1392.62 32.2457C1364.62 10.6603 1313.91 -2.2666 1270.57 1.26999ZM1305.22 65.4166C1307.27 67.2458 1307.39 71.1483 1307.39 140.417V213.344H1286.27H1265.14V140.539C1265.14 74.5629 1265.38 67.6117 1267.19 65.5385C1268.88 63.5873 1271.18 63.3434 1286.02 63.3434C1300.15 63.3434 1303.41 63.7092 1305.22 65.4166Z" fill="black"/>
<path d="M2511.63 1.2695C2479.51 3.95242 2448.12 14.1964 2425.67 29.5623L2418.06 34.6843V233.587V432.613L2427.96 438.954C2458.87 459.076 2503.42 469.442 2543.26 465.905C2576.45 462.978 2604.95 453.832 2628 438.954L2637.78 432.613V233.587V34.5623L2630.3 29.5623C2605.55 13.2208 2576.21 3.95242 2541.2 1.14755C2532.87 0.537781 2525.63 0.0499878 2524.91 0.171936C2524.3 0.171936 2518.27 0.659729 2511.63 1.2695ZM2546.15 64.5624C2548.45 65.9039 2548.45 69.0746 2548.45 233.465C2548.45 397.856 2548.45 401.027 2546.15 402.369C2544.82 402.978 2536.25 403.588 2526.84 403.588C2510.42 403.588 2509.81 403.466 2508 400.783C2506.31 398.222 2506.19 379.442 2506.43 232.368C2506.8 70.0502 2506.8 66.7575 2509.09 65.0502C2511.99 62.9771 2542.41 62.6112 2546.15 64.5624Z" fill="black"/>
<path d="M1446.23 234.076V458.467H1530.73H1615.24V420.052V381.637H1574.8H1534.36V195.661V9.68463H1490.29H1446.23V234.076Z" fill="black"/>
<path d="M1658.7 234.076V458.711L1723.05 458.101C1790.53 457.491 1801.4 456.759 1827.6 451.028C1842.2 447.735 1853.31 443.833 1866.71 436.881L1877.22 431.394L1876.97 233.71L1876.61 36.0262L1870.7 32.4896C1856.09 23.8311 1834.12 17.0018 1807.19 12.6115C1796.69 10.9042 1783.05 10.4164 1726.67 10.0505L1658.7 9.56271V234.076ZM1782.69 69.5629C1784.5 70.1727 1786.43 71.5142 1786.91 72.2459C1787.4 73.0995 1787.88 146.027 1787.88 234.32V394.93L1785.22 396.759C1783.05 398.345 1778.82 398.71 1764.7 398.71H1746.83V234.32C1746.83 143.832 1747.19 69.441 1747.68 69.0751C1749 67.7337 1778.94 68.0995 1782.69 69.5629Z" fill="black"/>
<path d="M1926.71 234.076V458.467H2013.63H2100.56V420.052V381.637H2058.3H2016.05V326.149V270.661H2054.08H2092.11V235.905V201.149H2054.08H2016.05V143.831V86.5142H2058.3H2100.56V48.0994V9.68463H2013.63H1926.71V234.076Z" fill="black"/>
<path d="M2147.64 233.954V458.467H2191.7H2235.77V370.662V282.856H2254.84C2268.12 282.856 2274.4 283.344 2275.37 284.32C2276.45 285.417 2276.82 306.637 2276.82 372.125V458.467H2322.69H2368.57V368.466V278.344L2361.08 271.027C2356.86 267.125 2349.25 260.661 2344.18 256.759C2338.99 252.856 2334.76 249.442 2334.76 249.32C2334.76 249.198 2338.75 246.027 2343.7 242.246C2348.53 238.588 2356.13 231.881 2360.6 227.368L2368.57 219.076V127.856V36.636L2360.48 32.0018C2344.54 23.0993 2325.35 17.0017 2298.55 12.6115C2287.92 10.7822 2274.64 10.4164 2216.82 10.0505L2147.64 9.56271V233.954ZM2271.62 69.5629C2273.44 70.1727 2275.37 71.5142 2275.85 72.2458C2276.33 73.0995 2276.82 104.685 2276.82 142.612C2276.82 194.685 2276.45 212.002 2275.37 213.1C2274.4 214.076 2268.12 214.563 2254.84 214.563H2235.77V142.246C2235.77 102.368 2236.13 69.441 2236.61 69.0751C2237.94 67.7336 2267.88 68.0995 2271.62 69.5629Z" fill="black"/>
<path d="M2687.28 234.076V458.467H2731.35H2775.41V308.466C2775.41 225.905 2775.77 158.466 2776.38 158.466C2776.86 158.588 2786.28 173.466 2797.38 191.758L2817.66 224.929V341.637V458.467H2862.33H2907V234.076V9.68463H2862.94H2818.87V56.2702C2818.87 87.4898 2818.51 102.49 2817.66 101.636C2816.94 100.904 2804.26 80.1727 2789.54 55.2946L2762.61 10.2944L2724.95 9.92853L2687.28 9.68463V234.076Z" fill="black"/>
<path d="M1241.96 508.589C1214.92 512.613 1197.53 537.979 1201.15 567.735C1202.48 578.467 1209.12 592.126 1216 598.223C1218.78 600.662 1224.58 604.443 1228.92 606.516C1236.41 610.052 1237.49 610.296 1251.26 610.296C1264.41 610.296 1266.35 610.052 1272.62 607.004C1282.28 602.491 1290.97 593.833 1295.32 584.565C1297.37 580.418 1298.94 576.638 1298.94 576.272C1298.94 575.906 1296.89 575.54 1294.35 575.54C1290.25 575.54 1289.65 575.906 1288.32 579.687C1286.02 586.028 1277.82 594.565 1270.69 598.101C1249.08 608.711 1223.01 600.296 1213.59 579.565C1205.74 562.247 1209 541.028 1221.56 528.467C1237.61 512.247 1266.47 512.613 1281.32 529.199C1283.85 532.003 1286.63 536.15 1287.59 538.467C1289.04 542.003 1289.89 542.613 1293.51 542.613C1298.46 542.613 1298.58 541.638 1295.32 534.442C1292.06 526.881 1282.52 517.247 1274.56 513.223C1268.76 510.296 1254.64 506.881 1250.05 507.369C1249.44 507.491 1245.7 507.979 1241.96 508.589Z" fill="black"/>
<path d="M2032.71 508.589C2014.48 512.857 1999.39 528.955 1995.53 548.101C1989.97 575.052 2004.58 601.028 2029.69 608.711C2036.45 610.784 2040.19 611.15 2049.25 610.662C2069.17 609.565 2083.29 600.418 2091.86 583.101C2096.33 573.955 2096.33 573.711 2096.33 559.199C2096.33 545.174 2096.09 544.077 2092.47 536.272C2088.12 527.003 2079.43 517.369 2071.82 513.467C2060.96 507.857 2044.3 505.784 2032.71 508.589ZM2064.58 519.686C2073.03 523.589 2080.64 531.394 2084.74 540.174C2087.52 546.028 2087.88 548.467 2087.88 559.077C2087.88 570.418 2087.64 571.882 2083.9 579.443C2079.43 588.711 2074 594.077 2064.34 598.589C2058.54 601.394 2056.13 601.76 2045.63 601.76C2031.26 601.76 2025.47 599.565 2016.29 590.906C2007.36 582.491 2003.49 572.857 2003.49 559.686C2003.49 539.077 2012.79 525.296 2031.74 517.979C2039.95 514.686 2055.65 515.54 2064.58 519.686Z" fill="black"/>
<path d="M2344.54 508.467C2323.9 512.857 2314.48 536.516 2327.88 550.784C2332.47 555.662 2339.47 558.711 2354.08 562.125C2372.91 566.638 2378.46 570.174 2380.28 579.199C2381.24 584.443 2377.62 593.223 2373.03 596.76C2364.34 603.223 2351.54 604.321 2341.28 599.443C2333.92 596.028 2329.81 590.662 2328.97 583.345C2328.48 578.223 2328.24 577.979 2324.38 577.979C2320.4 577.979 2320.28 578.101 2320.28 582.857C2320.28 602.613 2344.54 616.028 2367.84 609.199C2388.12 603.223 2395.97 577.979 2381.72 564.321C2376.9 559.686 2371.58 557.613 2350.94 552.247C2338.75 549.199 2333.92 546.272 2331.62 540.662C2326.67 528.589 2338.14 515.784 2354.08 515.784C2366.15 515.784 2374.96 522.125 2377.26 532.491C2378.71 538.711 2378.95 538.955 2382.93 538.955H2387.04L2386.19 532.613C2384.74 522.125 2379.55 514.93 2370.13 510.662C2364.1 507.979 2352.03 506.881 2344.54 508.467Z" fill="black"/>
<path d="M2756.46 508.467C2747.28 509.808 2735.33 515.906 2729.05 522.491C2726.03 525.54 2721.81 531.76 2719.64 536.272C2715.77 544.199 2715.65 544.808 2715.65 559.686C2715.65 574.565 2715.77 575.174 2719.64 583.101C2724.71 593.467 2732.31 601.15 2742.57 606.272C2750.3 610.174 2751.15 610.296 2765.15 610.296C2778.55 610.296 2780.24 610.052 2787.12 606.76C2798.11 601.638 2808.73 589.687 2812.11 578.223C2812.96 575.784 2812.59 575.54 2808.73 575.54C2804.87 575.54 2804.14 576.028 2801.49 581.272C2791.83 600.54 2768.05 607.979 2746.68 598.711C2739.19 595.418 2730.5 586.394 2726.88 578.345C2722.9 569.199 2722.53 554.686 2725.91 544.321C2733.04 522.857 2757.79 511.15 2780 518.711C2787.73 521.394 2798.23 530.662 2801.37 537.613C2803.42 542.247 2803.9 542.613 2808.13 542.613C2812.59 542.613 2812.72 542.491 2811.63 539.564C2807.89 529.564 2803.06 522.979 2795.69 517.369C2785.43 509.808 2770.34 506.394 2756.46 508.467Z" fill="black"/>
<path d="M948.839 559.077V609.687H977.21H1005.58V605.418V601.15H981.435H957.29V581.028V560.906H979.021H1000.75V557.247V553.589H979.021H957.29V535.296V517.003H980.831H1004.37V512.735V508.467H976.606H948.839V559.077Z" fill="black"/>
<path d="M1065.94 509.076C1065.94 509.442 1072.94 519.808 1081.4 532.003C1089.85 544.198 1097.21 554.93 1097.81 555.784C1098.54 557.003 1085.62 576.882 1066.3 603.833L1062.08 609.687H1067.51H1072.82L1086.47 589.808C1094.07 578.955 1101.07 568.833 1102.28 567.247C1104.33 564.564 1104.45 564.564 1119.91 587.125L1135.36 609.565L1140.55 609.687C1144.29 609.687 1145.5 609.321 1144.9 608.223C1144.41 607.491 1136.2 595.662 1126.79 582.003L1109.52 557.125L1124.13 536.15C1132.1 524.564 1139.71 513.711 1141.03 511.759L1143.33 508.467H1138.14H1132.82L1118.58 529.198C1110.61 540.662 1104.09 549.808 1103.97 549.686C1103.85 549.442 1097.33 540.174 1089.6 528.833L1075.48 508.467H1070.65C1068.12 508.467 1065.94 508.711 1065.94 509.076Z" fill="black"/>
<path d="M1387.31 531.881C1382 544.808 1372.34 567.613 1366.06 582.613L1354.6 609.809L1359.42 609.443L1364.25 609.077L1370.05 595.662L1375.72 582.248H1400.83H1426.06L1431.74 595.662L1437.53 609.077L1442.48 609.443L1447.43 609.809L1445.14 604.565C1443.93 601.638 1434.39 579.565 1423.89 555.418C1413.51 531.272 1404.7 510.784 1404.33 509.93C1403.97 509.198 1402.28 508.467 1400.47 508.467C1397.33 508.467 1396.61 509.564 1387.31 531.881ZM1411.58 548.345L1421.96 572.491L1401.32 572.857C1389.97 572.979 1380.55 572.979 1380.31 572.735C1379.59 572.126 1399.63 524.32 1400.47 524.32C1400.83 524.32 1405.9 535.174 1411.58 548.345Z" fill="black"/>
<path d="M1495.97 509.564C1496.21 510.296 1505.62 532.979 1516.85 560.296L1537.37 609.809L1540.87 609.443C1544.38 609.077 1544.86 608.101 1562.73 563.955C1572.75 539.077 1581.92 516.516 1583.01 513.589L1585.06 508.467H1580.35H1575.76L1569.73 523.345C1566.35 531.638 1558.62 550.906 1552.46 566.15C1546.31 581.516 1540.87 593.589 1540.39 592.979C1539.91 592.491 1531.7 573.223 1522.16 550.174L1505.02 508.467H1500.19C1497.66 508.467 1495.72 508.955 1495.97 509.564Z" fill="black"/>
<path d="M1654.84 559.199L1633.59 609.809L1638.54 609.443L1643.37 609.077L1649.04 595.662L1654.72 582.248H1679.83H1705.06L1710.74 595.662L1716.53 609.077L1721.36 609.443L1726.31 609.809L1722.2 600.296C1714.36 581.882 1685.5 515.174 1683.93 511.759C1682.85 509.442 1681.52 508.467 1679.35 508.467C1676.33 508.467 1675.12 510.784 1654.84 559.199ZM1680.19 572.857C1668.84 572.979 1659.43 572.979 1659.19 572.735C1658.94 572.491 1663.05 562.247 1668.12 549.808C1673.31 537.491 1678.02 526.272 1678.5 524.93C1679.11 523.101 1681.88 528.467 1690.09 547.491L1700.84 572.491L1680.19 572.857Z" fill="black"/>
<path d="M1773.39 512.735V516.881L1788.84 517.247L1804.18 517.613L1804.54 563.589L1804.78 609.687H1809H1813.23V563.345V517.003H1828.92H1844.62V512.735V508.467H1809H1773.39V512.735Z" fill="black"/>
<path d="M1913.43 559.077V609.687H1917.66H1921.88V559.077V508.467H1917.66H1913.43V559.077Z" fill="black"/>
<path d="M2170.58 559.077V609.687H2174.8H2179.03L2179.27 567.979L2179.63 526.15L2209.69 567.979C2237.1 606.028 2240 609.687 2243.13 609.687H2246.63V559.077V508.467H2242.41H2238.18L2237.94 550.174L2237.58 592.004L2207.52 550.174C2180.12 511.881 2177.34 508.467 2174.08 508.467H2170.58V559.077Z" fill="black"/>
<path d="M2509.81 559.077V609.687H2514.04H2518.27V559.077V508.467H2514.04H2509.81V559.077Z" fill="black"/>
<path d="M2581.04 559.077V609.687H2585.27H2589.49V568.223C2589.49 545.418 2589.85 526.759 2590.46 526.759C2590.94 526.881 2604.58 545.418 2620.88 568.223C2649.25 607.857 2650.58 609.565 2654.44 609.687H2658.31V559.077V508.467H2654.08H2649.85V549.93C2649.85 572.735 2649.49 591.394 2649.01 591.394C2648.41 591.272 2634.76 572.735 2618.47 549.93C2590.1 510.296 2588.77 508.589 2585.02 508.467H2581.04V559.077Z" fill="black"/>
</svg>
