<svg id="visual" viewBox="0 0 900 450" width="900" height="450" xmlns="http://www.w3.org/2000/svg" xmlns:xlink="http://www.w3.org/1999/xlink" version="1.1"><rect x="0" y="0" width="900" height="450" fill="#FFFFFF"></rect><defs><linearGradient id="grad1_0" x1="50%" y1="0%" x2="100%" y2="100%"><stop offset="10%" stop-color="#ffffff" stop-opacity="1"></stop><stop offset="90%" stop-color="#ffffff" stop-opacity="1"></stop></linearGradient></defs><defs><linearGradient id="grad2_0" x1="0%" y1="0%" x2="50%" y2="100%"><stop offset="10%" stop-color="#ffffff" stop-opacity="1"></stop><stop offset="90%" stop-color="#ffffff" stop-opacity="1"></stop></linearGradient></defs><g transform="translate(900, 0)"><path d="M0 360C-50.9 359.7 -101.7 359.5 -137.8 332.6C-173.8 305.7 -195 252.3 -211.4 211.4C-227.8 170.5 -239.4 142.2 -263.3 109.1C-287.3 75.9 -323.6 38 -360 0L0 0Z" fill="#eb5b2f"></path></g><g transform="translate(0, 450)"><path d="M0 -360C38.3 -328.3 76.6 -296.7 114.8 -277.2C153 -257.7 191.1 -250.4 230.5 -230.5C270 -210.7 310.8 -178.3 332.6 -137.8C354.4 -97.3 357.2 -48.6 360 0L0 0Z" fill="#eb5b2f"></path></g></svg>